<svg width="75" height="75" viewBox="0 0 75 75" fill="none" xmlns="http://www.w3.org/2000/svg">
<rect x="3" y="3" width="69" height="69" rx="34.5" fill="#2F80ED"/>
<path d="M34.5358 53.6359C35.5083 54.616 37.0912 54.6221 38.0713 53.6496C39.0514 52.6771 39.0576 51.0942 38.0851 50.1141L34.5358 53.6359ZM22.0469 37.5L20.2722 35.7391C19.3051 36.7138 19.3051 38.2862 20.2722 39.2609L22.0469 37.5ZM38.0851 24.8859C39.0576 23.9058 39.0514 22.3229 38.0713 21.3504C37.0912 20.3779 35.5083 20.384 34.5358 21.3641L38.0851 24.8859ZM24.0288 35C22.6481 35 21.5288 36.1193 21.5288 37.5C21.5288 38.8807 22.6481 40 24.0288 40V35ZM52.9531 40C54.3338 40 55.4531 38.8807 55.4531 37.5C55.4531 36.1193 54.3338 35 52.9531 35V40ZM38.0851 50.1141L23.8215 35.7391L20.2722 39.2609L34.5358 53.6359L38.0851 50.1141ZM23.8215 39.2609L38.0851 24.8859L34.5358 21.3641L20.2722 35.7391L23.8215 39.2609ZM24.0288 40H52.9531V35H24.0288V40ZM74.5 37.5C74.5 17.0724 57.9276 0.5 37.5 0.5V5.5C55.1662 5.5 69.5 19.8338 69.5 37.5H74.5ZM37.5 0.5C17.0724 0.5 0.5 17.0724 0.5 37.5H5.5C5.5 19.8338 19.8338 5.5 37.5 5.5V0.5ZM0.5 37.5C0.5 57.9276 17.0724 74.5 37.5 74.5V69.5C19.8338 69.5 5.5 55.1662 5.5 37.5H0.5ZM37.5 74.5C57.9276 74.5 74.5 57.9276 74.5 37.5H69.5C69.5 55.1662 55.1662 69.5 37.5 69.5V74.5Z" fill="#E0E0E0"/>
</svg>
