<svg width="37" height="50" viewBox="0 0 37 50" fill="none" xmlns="http://www.w3.org/2000/svg">
<mask id="mask0_38_247" style="mask-type:alpha" maskUnits="userSpaceOnUse" x="0" y="0" width="37" height="50">
<path d="M23.4423 0H4.23562C2.37143 0 0.846191 1.53409 0.846191 3.40909V46.5909C0.846191 48.4659 2.37143 50 4.23562 50H33.6106C35.4748 50 37 48.4659 37 46.5909V13.6363L23.4423 0Z" fill="white"/>
</mask>
<g mask="url(#mask0_38_247)">
<path d="M23.4423 0H4.23562C2.37143 0 0.846191 1.53409 0.846191 3.40909V46.5909C0.846191 48.4659 2.37143 50 4.23562 50H33.6106C35.4748 50 37 48.4659 37 46.5909V13.6363L29.0914 7.95455L23.4423 0Z" fill="#4285F4"/>
</g>
<mask id="mask1_38_247" style="mask-type:alpha" maskUnits="userSpaceOnUse" x="0" y="0" width="37" height="50">
<path d="M23.4423 0H4.23562C2.37143 0 0.846191 1.53409 0.846191 3.40909V46.5909C0.846191 48.4659 2.37143 50 4.23562 50H33.6106C35.4748 50 37 48.4659 37 46.5909V13.6363L23.4423 0Z" fill="white"/>
</mask>
<g mask="url(#mask1_38_247)">
<path d="M24.4336 12.6392L36.9999 25.2756V13.6364L24.4336 12.6392Z" fill="url(#paint0_linear_38_247)"/>
</g>
<mask id="mask2_38_247" style="mask-type:alpha" maskUnits="userSpaceOnUse" x="0" y="0" width="37" height="50">
<path d="M23.4423 0H4.23562C2.37143 0 0.846191 1.53409 0.846191 3.40909V46.5909C0.846191 48.4659 2.37143 50 4.23562 50H33.6106C35.4748 50 37 48.4659 37 46.5909V13.6363L23.4423 0Z" fill="white"/>
</mask>
<g mask="url(#mask2_38_247)">
<path d="M9.88477 36.3637H27.9617V34.0909H9.88477V36.3637ZM9.88477 40.9091H23.4425V38.6364H9.88477V40.9091ZM9.88477 25V27.2728H27.9617V25H9.88477ZM9.88477 31.8182H27.9617V29.5455H9.88477V31.8182Z" fill="#F1F1F1"/>
</g>
<mask id="mask3_38_247" style="mask-type:alpha" maskUnits="userSpaceOnUse" x="0" y="0" width="37" height="50">
<path d="M23.4423 0H4.23562C2.37143 0 0.846191 1.53409 0.846191 3.40909V46.5909C0.846191 48.4659 2.37143 50 4.23562 50H33.6106C35.4748 50 37 48.4659 37 46.5909V13.6363L23.4423 0Z" fill="white"/>
</mask>
<g mask="url(#mask3_38_247)">
<path d="M23.4424 0V10.2273C23.4424 12.1108 24.9591 13.6364 26.8318 13.6364H37.0001L23.4424 0Z" fill="#A1C2FA"/>
</g>
<mask id="mask4_38_247" style="mask-type:alpha" maskUnits="userSpaceOnUse" x="0" y="0" width="37" height="50">
<path d="M23.4423 0H4.23562C2.37143 0 0.846191 1.53409 0.846191 3.40909V46.5909C0.846191 48.4659 2.37143 50 4.23562 50H33.6106C35.4748 50 37 48.4659 37 46.5909V13.6363L23.4423 0Z" fill="white"/>
</mask>
<g mask="url(#mask4_38_247)">
<path d="M4.23562 0C2.37143 0 0.846191 1.53409 0.846191 3.40909V3.69318C0.846191 1.81818 2.37143 0.284091 4.23562 0.284091H23.4423V0H4.23562Z" fill="white" fill-opacity="0.2"/>
</g>
<mask id="mask5_38_247" style="mask-type:alpha" maskUnits="userSpaceOnUse" x="0" y="0" width="37" height="50">
<path d="M23.4423 0H4.23562C2.37143 0 0.846191 1.53409 0.846191 3.40909V46.5909C0.846191 48.4659 2.37143 50 4.23562 50H33.6106C35.4748 50 37 48.4659 37 46.5909V13.6363L23.4423 0Z" fill="white"/>
</mask>
<g mask="url(#mask5_38_247)">
<path d="M33.6106 49.716H4.23562C2.37143 49.716 0.846191 48.1819 0.846191 46.3069V46.591C0.846191 48.466 2.37143 50.0001 4.23562 50.0001H33.6106C35.4748 50.0001 37 48.466 37 46.591V46.3069C37 48.1819 35.4748 49.716 33.6106 49.716Z" fill="#1A237E" fill-opacity="0.2"/>
</g>
<mask id="mask6_38_247" style="mask-type:alpha" maskUnits="userSpaceOnUse" x="0" y="0" width="37" height="50">
<path d="M23.4423 0H4.23562C2.37143 0 0.846191 1.53409 0.846191 3.40909V46.5909C0.846191 48.4659 2.37143 50 4.23562 50H33.6106C35.4748 50 37 48.4659 37 46.5909V13.6363L23.4423 0Z" fill="white"/>
</mask>
<g mask="url(#mask6_38_247)">
<path d="M26.8318 13.6363C24.9591 13.6363 23.4424 12.1108 23.4424 10.2272V10.5113C23.4424 12.3949 24.9591 13.9204 26.8318 13.9204H37.0001V13.6363H26.8318Z" fill="#1A237E" fill-opacity="0.1"/>
<path d="M23.4423 0H4.23562C2.37143 0 0.846191 1.53409 0.846191 3.40909V46.5909C0.846191 48.4659 2.37143 50 4.23562 50H33.6106C35.4748 50 37 48.4659 37 46.5909V13.6363L23.4423 0Z" fill="url(#paint1_radial_38_247)"/>
</g>
<defs>
<linearGradient id="paint0_linear_38_247" x1="30.7174" y1="13.7242" x2="30.7174" y2="25.2774" gradientUnits="userSpaceOnUse">
<stop stop-color="#1A237E" stop-opacity="0.2"/>
<stop offset="1" stop-color="#1A237E" stop-opacity="0.02"/>
</linearGradient>
<radialGradient id="paint1_radial_38_247" cx="0" cy="0" r="1" gradientUnits="userSpaceOnUse" gradientTransform="translate(1.99156 0.988251) scale(58.2975 58.2975)">
<stop stop-color="white" stop-opacity="0.1"/>
<stop offset="1" stop-color="white" stop-opacity="0"/>
</radialGradient>
</defs>
</svg>
