<svg width="56" height="50" viewBox="0 0 56 50" fill="none" xmlns="http://www.w3.org/2000/svg">
<path d="M4.26934 42.8526L6.73727 47.1154C7.25012 48.0128 7.98727 48.718 8.85267 49.2308L17.6668 33.9743H0.0385742C0.0385742 34.9679 0.294985 35.9616 0.807804 36.859L4.26934 42.8526Z" fill="#0066DA"/>
<path d="M28.0193 16.0257L19.2052 0.76923C18.3399 1.28205 17.6027 1.98718 17.0899 2.88461L0.807804 31.0898C0.304416 31.9678 0.0392445 32.9622 0.0385742 33.9743H17.6668L28.0193 16.0257Z" fill="#00AC47"/>
<path d="M47.186 49.2308C48.0514 48.718 48.7886 48.0128 49.3014 47.1154L50.3271 45.3526L55.2311 36.859C55.7436 35.9616 56.0001 34.9679 56.0001 33.9743H38.3706L42.1219 41.3461L47.186 49.2308Z" fill="#EA4335"/>
<path d="M28.0193 16.0257L36.8335 0.76923C35.9681 0.25641 34.9745 0 33.9488 0H22.0899C21.0642 0 20.0706 0.288462 19.2052 0.76923L28.0193 16.0257Z" fill="#00832D"/>
<path d="M38.3719 33.9743H17.6668L8.85267 49.2308C9.71807 49.7436 10.7117 50 11.7373 50H44.3014C45.327 50 46.3206 49.7116 47.186 49.2308L38.3719 33.9743Z" fill="#2684FC"/>
<path d="M47.0899 16.9872L38.9488 2.88461C38.436 1.98718 37.6989 1.28205 36.8335 0.76923L28.0193 16.0257L38.3719 33.9743H55.9681C55.9681 32.9808 55.7116 31.9872 55.1991 31.0898L47.0899 16.9872Z" fill="#FFBA00"/>
</svg>
