<svg width="37" height="50" viewBox="0 0 37 50" fill="none" xmlns="http://www.w3.org/2000/svg">
<mask id="mask0_38_380" style="mask-type:alpha" maskUnits="userSpaceOnUse" x="0" y="0" width="37" height="50">
<path d="M23.3635 0H4.04532C2.17032 0 0.63623 1.53409 0.63623 3.40909V46.5909C0.63623 48.4659 2.17032 50 4.04532 50H33.5908C35.4658 50 36.9999 48.4659 36.9999 46.5909V13.6363L23.3635 0Z" fill="white"/>
</mask>
<g mask="url(#mask0_38_380)">
<path d="M23.3635 0H4.04532C2.17032 0 0.63623 1.53409 0.63623 3.40909V46.5909C0.63623 48.4659 2.17032 50 4.04532 50H33.5908C35.4658 50 36.9999 48.4659 36.9999 46.5909V13.6363L29.0453 7.95453L23.3635 0Z" fill="#673AB7"/>
</g>
<mask id="mask1_38_380" style="mask-type:alpha" maskUnits="userSpaceOnUse" x="0" y="0" width="37" height="50">
<path d="M23.3635 0H4.04532C2.17032 0 0.63623 1.53409 0.63623 3.40909V46.5909C0.63623 48.4659 2.17032 50 4.04532 50H33.5908C35.4658 50 36.9999 48.4659 36.9999 46.5909V13.6363L23.3635 0Z" fill="white"/>
</mask>
<g mask="url(#mask1_38_380)">
<path d="M15.4089 38.6365H27.909V36.3638H15.4089V38.6365ZM15.4089 25.0001V27.2729H27.909V25.0001H15.4089ZM12.568 26.1365C12.568 27.0768 11.8038 27.841 10.8635 27.841C9.92315 27.841 9.15894 27.0768 9.15894 26.1365C9.15894 25.1962 9.92315 24.4319 10.8635 24.4319C11.8038 24.4319 12.568 25.1962 12.568 26.1365ZM12.568 31.8183C12.568 32.7586 11.8038 33.5229 10.8635 33.5229C9.92315 33.5229 9.15894 32.7586 9.15894 31.8183C9.15894 30.878 9.92315 30.1138 10.8635 30.1138C11.8038 30.1138 12.568 30.878 12.568 31.8183ZM12.568 37.5001C12.568 38.4405 11.8038 39.2047 10.8635 39.2047C9.92315 39.2047 9.15894 38.4405 9.15894 37.5001C9.15894 36.5598 9.92315 35.7956 10.8635 35.7956C11.8038 35.7956 12.568 36.5598 12.568 37.5001ZM15.4089 32.9547H27.909V30.682H15.4089V32.9547Z" fill="#F1F1F1"/>
</g>
<mask id="mask2_38_380" style="mask-type:alpha" maskUnits="userSpaceOnUse" x="0" y="0" width="37" height="50">
<path d="M23.3635 0H4.04532C2.17032 0 0.63623 1.53409 0.63623 3.40909V46.5909C0.63623 48.4659 2.17032 50 4.04532 50H33.5908C35.4658 50 36.9999 48.4659 36.9999 46.5909V13.6363L23.3635 0Z" fill="white"/>
</mask>
<g mask="url(#mask2_38_380)">
<path d="M24.3608 12.6391L37.0001 25.2755V13.6362L24.3608 12.6391Z" fill="url(#paint0_linear_38_380)"/>
</g>
<mask id="mask3_38_380" style="mask-type:alpha" maskUnits="userSpaceOnUse" x="0" y="0" width="37" height="50">
<path d="M23.3635 0H4.04532C2.17032 0 0.63623 1.53409 0.63623 3.40909V46.5909C0.63623 48.4659 2.17032 50 4.04532 50H33.5908C35.4658 50 36.9999 48.4659 36.9999 46.5909V13.6363L23.3635 0Z" fill="white"/>
</mask>
<g mask="url(#mask3_38_380)">
<path d="M23.3635 0V10.2273C23.3635 12.1108 24.8891 13.6363 26.7726 13.6363H36.9999L23.3635 0Z" fill="#B39DDB"/>
</g>
<mask id="mask4_38_380" style="mask-type:alpha" maskUnits="userSpaceOnUse" x="0" y="0" width="37" height="50">
<path d="M23.3635 0H4.04532C2.17032 0 0.63623 1.53409 0.63623 3.40909V46.5909C0.63623 48.4659 2.17032 50 4.04532 50H33.5908C35.4658 50 36.9999 48.4659 36.9999 46.5909V13.6363L23.3635 0Z" fill="white"/>
</mask>
<g mask="url(#mask4_38_380)">
<path d="M4.04532 0C2.17032 0 0.63623 1.53409 0.63623 3.40909V3.69318C0.63623 1.81818 2.17032 0.284091 4.04532 0.284091H23.3635V0H4.04532Z" fill="white" fill-opacity="0.2"/>
</g>
<mask id="mask5_38_380" style="mask-type:alpha" maskUnits="userSpaceOnUse" x="0" y="0" width="37" height="50">
<path d="M23.3635 0H4.04532C2.17032 0 0.63623 1.53409 0.63623 3.40909V46.5909C0.63623 48.4659 2.17032 50 4.04532 50H33.5908C35.4658 50 36.9999 48.4659 36.9999 46.5909V13.6363L23.3635 0Z" fill="white"/>
</mask>
<g mask="url(#mask5_38_380)">
<path d="M33.5908 49.7159H4.04532C2.17032 49.7159 0.63623 48.1818 0.63623 46.3068V46.5909C0.63623 48.4659 2.17032 50 4.04532 50H33.5908C35.4658 50 36.9999 48.4659 36.9999 46.5909V46.3068C36.9999 48.1818 35.4658 49.7159 33.5908 49.7159Z" fill="#311B92" fill-opacity="0.2"/>
</g>
<mask id="mask6_38_380" style="mask-type:alpha" maskUnits="userSpaceOnUse" x="0" y="0" width="37" height="50">
<path d="M23.3635 0H4.04532C2.17032 0 0.63623 1.53409 0.63623 3.40909V46.5909C0.63623 48.4659 2.17032 50 4.04532 50H33.5908C35.4658 50 36.9999 48.4659 36.9999 46.5909V13.6363L23.3635 0Z" fill="white"/>
</mask>
<g mask="url(#mask6_38_380)">
<path d="M26.7726 13.6363C24.8891 13.6363 23.3635 12.1108 23.3635 10.2273V10.5113C23.3635 12.3949 24.8891 13.9204 26.7726 13.9204H36.9999V13.6363H26.7726Z" fill="#311B92" fill-opacity="0.1"/>
<path d="M23.3635 0H4.04532C2.17032 0 0.63623 1.53409 0.63623 3.40909V46.5909C0.63623 48.4659 2.17032 50 4.04532 50H33.5908C35.4658 50 36.9999 48.4659 36.9999 46.5909V13.6363L23.3635 0Z" fill="url(#paint1_radial_38_380)"/>
</g>
<defs>
<linearGradient id="paint0_linear_38_380" x1="30.6812" y1="13.7241" x2="30.6812" y2="25.2772" gradientUnits="userSpaceOnUse">
<stop stop-color="#311B92" stop-opacity="0.2"/>
<stop offset="1" stop-color="#311B92" stop-opacity="0.02"/>
</linearGradient>
<radialGradient id="paint1_radial_38_380" cx="0" cy="0" r="1" gradientUnits="userSpaceOnUse" gradientTransform="translate(1.78825 0.993855) scale(58.6359)">
<stop stop-color="white" stop-opacity="0.1"/>
<stop offset="1" stop-color="white" stop-opacity="0"/>
</radialGradient>
</defs>
</svg>
