<svg width="37" height="50" viewBox="0 0 37 50" fill="none" xmlns="http://www.w3.org/2000/svg">
<mask id="mask0_38_381" style="mask-type:alpha" maskUnits="userSpaceOnUse" x="0" y="0" width="37" height="50">
<path d="M23.3638 0H4.04557C2.17056 0 0.636475 1.53409 0.636475 3.40909V46.5909C0.636475 48.4659 2.17056 50 4.04557 50H33.591C35.466 50 37.0001 48.4659 37.0001 46.5909V13.6364L23.3638 0Z" fill="white"/>
</mask>
<g mask="url(#mask0_38_381)">
<path d="M23.3638 0H4.04557C2.17056 0 0.636475 1.53409 0.636475 3.40909V46.5909C0.636475 48.4659 2.17056 50 4.04557 50H33.591C35.466 50 37.0001 48.4659 37.0001 46.5909V13.6364L29.0455 7.95452L23.3638 0Z" fill="#0F9D58"/>
</g>
<mask id="mask1_38_381" style="mask-type:alpha" maskUnits="userSpaceOnUse" x="0" y="0" width="37" height="50">
<path d="M23.3638 0H4.04557C2.17056 0 0.636475 1.53409 0.636475 3.40909V46.5909C0.636475 48.4659 2.17056 50 4.04557 50H33.591C35.466 50 37.0001 48.4659 37.0001 46.5909V13.6364L23.3638 0Z" fill="white"/>
</mask>
<g mask="url(#mask1_38_381)">
<path d="M9.72754 24.4318V40.9091H27.9094V24.4318H9.72754ZM17.6821 38.6364H12.0003V35.7954H17.6821V38.6364ZM17.6821 34.0909H12.0003V31.25H17.6821V34.0909ZM17.6821 29.5455H12.0003V26.7045H17.6821V29.5455ZM25.6366 38.6364H19.9548V35.7954H25.6366V38.6364ZM25.6366 34.0909H19.9548V31.25H25.6366V34.0909ZM25.6366 29.5455H19.9548V26.7045H25.6366V29.5455Z" fill="#F1F1F1"/>
</g>
<mask id="mask2_38_381" style="mask-type:alpha" maskUnits="userSpaceOnUse" x="0" y="0" width="37" height="50">
<path d="M23.3638 0H4.04557C2.17056 0 0.636475 1.53409 0.636475 3.40909V46.5909C0.636475 48.4659 2.17056 50 4.04557 50H33.591C35.466 50 37.0001 48.4659 37.0001 46.5909V13.6364L23.3638 0Z" fill="white"/>
</mask>
<g mask="url(#mask2_38_381)">
<path d="M24.3608 12.6392L37.0001 25.2756V13.6364L24.3608 12.6392Z" fill="url(#paint0_linear_38_381)"/>
</g>
<mask id="mask3_38_381" style="mask-type:alpha" maskUnits="userSpaceOnUse" x="0" y="0" width="37" height="50">
<path d="M23.3638 0H4.04557C2.17056 0 0.636475 1.53409 0.636475 3.40909V46.5909C0.636475 48.4659 2.17056 50 4.04557 50H33.591C35.466 50 37.0001 48.4659 37.0001 46.5909V13.6364L23.3638 0Z" fill="white"/>
</mask>
<g mask="url(#mask3_38_381)">
<path d="M23.3638 0V10.2273C23.3638 12.1108 24.8893 13.6364 26.7728 13.6364H37.0001L23.3638 0Z" fill="#87CEAC"/>
</g>
<mask id="mask4_38_381" style="mask-type:alpha" maskUnits="userSpaceOnUse" x="0" y="0" width="37" height="50">
<path d="M23.3638 0H4.04557C2.17056 0 0.636475 1.53409 0.636475 3.40909V46.5909C0.636475 48.4659 2.17056 50 4.04557 50H33.591C35.466 50 37.0001 48.4659 37.0001 46.5909V13.6364L23.3638 0Z" fill="white"/>
</mask>
<g mask="url(#mask4_38_381)">
<path d="M4.04557 0C2.17056 0 0.636475 1.53409 0.636475 3.40909V3.69318C0.636475 1.81818 2.17056 0.284092 4.04557 0.284092H23.3638V0H4.04557Z" fill="white" fill-opacity="0.2"/>
</g>
<mask id="mask5_38_381" style="mask-type:alpha" maskUnits="userSpaceOnUse" x="0" y="0" width="37" height="50">
<path d="M23.3638 0H4.04557C2.17056 0 0.636475 1.53409 0.636475 3.40909V46.5909C0.636475 48.4659 2.17056 50 4.04557 50H33.591C35.466 50 37.0001 48.4659 37.0001 46.5909V13.6364L23.3638 0Z" fill="white"/>
</mask>
<g mask="url(#mask5_38_381)">
<path d="M33.591 49.7159H4.04557C2.17056 49.7159 0.636475 48.1818 0.636475 46.3068V46.5909C0.636475 48.4659 2.17056 50 4.04557 50H33.591C35.466 50 37.0001 48.4659 37.0001 46.5909V46.3068C37.0001 48.1818 35.466 49.7159 33.591 49.7159Z" fill="#263238" fill-opacity="0.2"/>
</g>
<mask id="mask6_38_381" style="mask-type:alpha" maskUnits="userSpaceOnUse" x="0" y="0" width="37" height="50">
<path d="M23.3638 0H4.04557C2.17056 0 0.636475 1.53409 0.636475 3.40909V46.5909C0.636475 48.4659 2.17056 50 4.04557 50H33.591C35.466 50 37.0001 48.4659 37.0001 46.5909V13.6364L23.3638 0Z" fill="white"/>
</mask>
<g mask="url(#mask6_38_381)">
<path d="M26.7728 13.6364C24.8893 13.6364 23.3638 12.1108 23.3638 10.2273V10.5114C23.3638 12.3949 24.8893 13.9204 26.7728 13.9204H37.0001V13.6364H26.7728Z" fill="#263238" fill-opacity="0.1"/>
<path d="M23.3638 0H4.04557C2.17056 0 0.636475 1.53409 0.636475 3.40909V46.5909C0.636475 48.4659 2.17056 50 4.04557 50H33.591C35.466 50 37.0001 48.4659 37.0001 46.5909V13.6364L23.3638 0Z" fill="url(#paint1_radial_38_381)"/>
</g>
<defs>
<linearGradient id="paint0_linear_38_381" x1="30.6811" y1="13.7242" x2="30.6811" y2="25.2774" gradientUnits="userSpaceOnUse">
<stop stop-color="#263238" stop-opacity="0.2"/>
<stop offset="1" stop-color="#263238" stop-opacity="0.02"/>
</linearGradient>
<radialGradient id="paint1_radial_38_381" cx="0" cy="0" r="1" gradientUnits="userSpaceOnUse" gradientTransform="translate(1.78849 0.993854) scale(58.6359 58.6359)">
<stop stop-color="white" stop-opacity="0.1"/>
<stop offset="1" stop-color="white" stop-opacity="0"/>
</radialGradient>
</defs>
</svg>
