<svg width="37" height="50" viewBox="0 0 37 50" fill="none" xmlns="http://www.w3.org/2000/svg">
<mask id="mask0_38_383" style="mask-type:alpha" maskUnits="userSpaceOnUse" x="0" y="0" width="37" height="50">
<path d="M23.3635 0H4.04532C2.17032 0 0.63623 1.53409 0.63623 3.40909V46.5909C0.63623 48.4659 2.17032 50 4.04532 50H33.5908C35.4658 50 36.9999 48.4659 36.9999 46.5909V13.6363L23.3635 0Z" fill="white"/>
</mask>
<g mask="url(#mask0_38_383)">
<path d="M23.3635 0H4.04532C2.17032 0 0.63623 1.53409 0.63623 3.40909V46.5909C0.63623 48.4659 2.17032 50 4.04532 50H33.5908C35.4658 50 36.9999 48.4659 36.9999 46.5909V13.6363L29.0453 7.95453L23.3635 0Z" fill="#F4B400"/>
</g>
<mask id="mask1_38_383" style="mask-type:alpha" maskUnits="userSpaceOnUse" x="0" y="0" width="37" height="50">
<path d="M23.3635 0H4.04532C2.17032 0 0.63623 1.53409 0.63623 3.40909V46.5909C0.63623 48.4659 2.17032 50 4.04532 50H33.5908C35.4658 50 36.9999 48.4659 36.9999 46.5909V13.6363L23.3635 0Z" fill="white"/>
</mask>
<g mask="url(#mask1_38_383)">
<path d="M26.2043 22.7273H11.4316C10.4941 22.7273 9.72705 23.4943 9.72705 24.4319V39.2046C9.72705 40.1421 10.4941 40.9091 11.4316 40.9091H26.2043C27.1418 40.9091 27.9089 40.1421 27.9089 39.2046V24.4319C27.9089 23.4943 27.1418 22.7273 26.2043 22.7273ZM25.6362 35.7955H11.9998V27.841H25.6362V35.7955Z" fill="#F1F1F1"/>
</g>
<mask id="mask2_38_383" style="mask-type:alpha" maskUnits="userSpaceOnUse" x="0" y="0" width="37" height="50">
<path d="M23.3635 0H4.04532C2.17032 0 0.63623 1.53409 0.63623 3.40909V46.5909C0.63623 48.4659 2.17032 50 4.04532 50H33.5908C35.4658 50 36.9999 48.4659 36.9999 46.5909V13.6363L23.3635 0Z" fill="white"/>
</mask>
<g mask="url(#mask2_38_383)">
<path d="M24.3608 12.6392L37 25.2755V13.6363L24.3608 12.6392Z" fill="url(#paint0_linear_38_383)"/>
</g>
<mask id="mask3_38_383" style="mask-type:alpha" maskUnits="userSpaceOnUse" x="0" y="0" width="37" height="50">
<path d="M23.3635 0H4.04532C2.17032 0 0.63623 1.53409 0.63623 3.40909V46.5909C0.63623 48.4659 2.17032 50 4.04532 50H33.5908C35.4658 50 36.9999 48.4659 36.9999 46.5909V13.6363L23.3635 0Z" fill="white"/>
</mask>
<g mask="url(#mask3_38_383)">
<path d="M23.3635 0V10.2273C23.3635 12.1108 24.8891 13.6363 26.7726 13.6363H36.9999L23.3635 0Z" fill="#FADA80"/>
</g>
<mask id="mask4_38_383" style="mask-type:alpha" maskUnits="userSpaceOnUse" x="0" y="0" width="37" height="50">
<path d="M23.3635 0H4.04532C2.17032 0 0.63623 1.53409 0.63623 3.40909V46.5909C0.63623 48.4659 2.17032 50 4.04532 50H33.5908C35.4658 50 36.9999 48.4659 36.9999 46.5909V13.6363L23.3635 0Z" fill="white"/>
</mask>
<g mask="url(#mask4_38_383)">
<path d="M23.3635 0V0.284091L36.7158 13.6363H36.9999L23.3635 0Z" fill="white" fill-opacity="0.1"/>
</g>
<mask id="mask5_38_383" style="mask-type:alpha" maskUnits="userSpaceOnUse" x="0" y="0" width="37" height="50">
<path d="M23.3635 0H4.04532C2.17032 0 0.63623 1.53409 0.63623 3.40909V46.5909C0.63623 48.4659 2.17032 50 4.04532 50H33.5908C35.4658 50 36.9999 48.4659 36.9999 46.5909V13.6363L23.3635 0Z" fill="white"/>
</mask>
<g mask="url(#mask5_38_383)">
<path d="M4.04532 0C2.17032 0 0.63623 1.53409 0.63623 3.40909V3.69318C0.63623 1.81818 2.17032 0.284091 4.04532 0.284091H23.3635V0H4.04532Z" fill="white" fill-opacity="0.2"/>
</g>
<mask id="mask6_38_383" style="mask-type:alpha" maskUnits="userSpaceOnUse" x="0" y="0" width="37" height="50">
<path d="M23.3635 0H4.04532C2.17032 0 0.63623 1.53409 0.63623 3.40909V46.5909C0.63623 48.4659 2.17032 50 4.04532 50H33.5908C35.4658 50 36.9999 48.4659 36.9999 46.5909V13.6363L23.3635 0Z" fill="white"/>
</mask>
<g mask="url(#mask6_38_383)">
<path d="M33.5908 49.7159H4.04532C2.17032 49.7159 0.63623 48.1818 0.63623 46.3068V46.5909C0.63623 48.4659 2.17032 50 4.04532 50H33.5908C35.4658 50 36.9999 48.4659 36.9999 46.5909V46.3068C36.9999 48.1818 35.4658 49.7159 33.5908 49.7159Z" fill="#BF360C" fill-opacity="0.2"/>
</g>
<mask id="mask7_38_383" style="mask-type:alpha" maskUnits="userSpaceOnUse" x="0" y="0" width="37" height="50">
<path d="M23.3635 0H4.04532C2.17032 0 0.63623 1.53409 0.63623 3.40909V46.5909C0.63623 48.4659 2.17032 50 4.04532 50H33.5908C35.4658 50 36.9999 48.4659 36.9999 46.5909V13.6363L23.3635 0Z" fill="white"/>
</mask>
<g mask="url(#mask7_38_383)">
<path d="M26.7726 13.6363C24.8891 13.6363 23.3635 12.1108 23.3635 10.2273V10.5113C23.3635 12.3949 24.8891 13.9204 26.7726 13.9204H36.9999V13.6363H26.7726Z" fill="#BF360C" fill-opacity="0.1"/>
</g>
<defs>
<linearGradient id="paint0_linear_38_383" x1="30.6811" y1="13.7241" x2="30.6811" y2="25.2773" gradientUnits="userSpaceOnUse">
<stop stop-color="#BF360C" stop-opacity="0.2"/>
<stop offset="1" stop-color="#BF360C" stop-opacity="0.02"/>
</linearGradient>
</defs>
</svg>
