<svg width="45" height="50" viewBox="0 0 45 50" fill="none" xmlns="http://www.w3.org/2000/svg">
<path d="M44.9998 43.4377C44.9998 42.1495 44.6178 40.8903 43.9021 39.8192C43.1865 38.7481 42.1692 37.9133 40.9791 37.4203C39.789 36.9274 38.4794 36.7984 37.216 37.0497C35.9526 37.301 34.792 37.9213 33.8812 38.8322C32.9703 39.7431 32.35 40.9036 32.0986 42.1671C31.8473 43.4305 31.9763 44.7401 32.4693 45.9302C32.9622 47.1203 33.7971 48.1375 34.8681 48.8532C35.9392 49.5689 37.1985 49.9509 38.4867 49.9509C39.3436 49.9568 40.1932 49.7924 40.9861 49.4672C41.779 49.1419 42.4994 48.6624 43.1054 48.0564C43.7113 47.4504 44.1909 46.7301 44.5161 45.9372C44.8413 45.1443 45.0057 44.2947 44.9998 43.4377Z" fill="#FFA056"/>
<path d="M38.4368 13.0263C37.5798 13.0322 36.7302 12.8678 35.9373 12.5426C35.1444 12.2173 34.424 11.7378 33.8181 11.1318C33.2121 10.5258 32.7325 9.80548 32.4073 9.01259C32.0821 8.2197 31.9177 7.37009 31.9236 6.51312C31.9268 4.78785 32.6145 3.13435 33.8356 1.91554C35.0567 0.696733 36.7115 0.012207 38.4367 0.012207C40.162 0.012207 41.8168 0.696733 43.0379 1.91554C44.259 3.13435 44.9466 4.78785 44.9499 6.51312C44.9558 7.37009 44.7914 8.2197 44.4662 9.01259C44.141 9.80547 43.6614 10.5258 43.0554 11.1318C42.4495 11.7378 41.7291 12.2173 40.9362 12.5426C40.1433 12.8678 39.2937 13.0322 38.4368 13.0263Z" fill="#FFA056"/>
<path d="M31.9233 43.4377C31.9297 44.2971 31.766 45.1494 31.4416 45.9452C31.1172 46.7411 30.6385 47.4649 30.033 48.0749C29.4276 48.6849 28.7074 49.1691 27.914 49.4995C27.1205 49.8299 26.2696 50 25.4101 50C24.5506 50 23.6997 49.8299 22.9063 49.4995C22.1128 49.1691 21.3926 48.6849 20.7872 48.0749C20.1818 47.4649 19.703 46.7411 19.3786 45.9452C19.0542 45.1494 18.8905 44.2971 18.897 43.4377C18.8932 40.2697 17.6331 37.2326 15.393 34.9925C13.1529 32.7524 10.1158 31.4923 6.94785 31.4886C6.08828 31.4952 5.2359 31.3317 4.43984 31.0074C3.64378 30.683 2.9198 30.2043 2.30963 29.5989C1.69945 28.9934 1.21516 28.2732 0.884672 27.4796C0.554183 26.6861 0.384033 25.835 0.384033 24.9754C0.384033 24.1158 0.554183 23.2648 0.884672 22.4712C1.21516 21.6777 1.69945 20.9575 2.30963 20.352C2.9198 19.7465 3.64378 19.2678 4.43984 18.9435C5.2359 18.6192 6.08828 18.4556 6.94785 18.4623C10.1158 18.4586 13.1529 17.1984 15.393 14.9583C17.6331 12.7183 18.8932 9.68112 18.897 6.51316C18.897 5.22498 19.2789 3.96573 19.9946 2.89464C20.7103 1.82356 21.7275 0.988753 22.9176 0.495787C24.1078 0.00282204 25.4173 -0.12616 26.6808 0.125151C27.9442 0.376463 29.1047 0.996781 30.0156 1.90766C30.9265 2.81854 31.5468 3.97908 31.7981 5.2425C32.0494 6.50593 31.9204 7.81551 31.4275 9.00563C30.9345 10.1958 30.0997 11.213 29.0286 11.9286C27.9575 12.6443 26.6983 13.0263 25.4101 13.0263C22.2439 13.0307 19.2088 14.2916 16.9715 16.532C14.7342 18.7724 13.4776 21.8092 13.4776 24.9754C13.4776 28.1417 14.7342 31.1785 16.9715 33.4189C19.2088 35.6593 22.2439 36.9202 25.4101 36.9246C27.1351 36.9324 28.7871 37.6212 30.0069 38.8409C31.2266 40.0607 31.9154 41.7127 31.9233 43.4377Z" fill="#FFA056"/>
</svg>
