<svg width="58" height="50" viewBox="0 0 58 50" fill="none" xmlns="http://www.w3.org/2000/svg">
<path d="M51.9952 7.1383H3.28544C1.94179 7.1383 0.852539 8.22754 0.852539 9.5712V47.5671C0.852539 48.9108 1.94179 50 3.28544 50H51.9952C53.3389 50 54.4282 48.9108 54.4282 47.5671V9.5712C54.4282 8.22754 53.3389 7.1383 51.9952 7.1383Z" fill="url(#paint0_linear_38_384)"/>
<path d="M27.5962 30.257C27.4788 30.1506 27.326 30.0916 27.1675 30.0916C27.009 30.0916 26.8561 30.1506 26.7387 30.257C24.9687 31.7775 22.8308 32.0817 21.146 31.5434C20.3249 31.2727 19.6802 30.7314 19.0172 30.0228C18.4941 29.4146 15.5655 25.7226 14.4038 24.6309C13.2291 23.523 11.7433 22.8013 10.1462 22.5629C8.59092 22.3372 7.00449 22.6278 5.63016 23.3901C4.34175 24.1054 3.34038 25.2443 2.79582 26.6137C2.74676 26.7473 2.74375 26.8935 2.78728 27.0291C2.8308 27.1646 2.91837 27.2817 3.03607 27.3618C3.1571 27.4407 3.30041 27.4783 3.44458 27.469C3.58875 27.4597 3.72603 27.4039 3.83589 27.3101C5.60887 25.7896 7.74374 25.4854 9.43157 26.0237C10.2496 26.2944 10.8944 26.8357 11.5604 27.5443C12.0834 28.1525 15.0151 31.8444 16.1738 32.9362C17.3485 34.0441 18.8343 34.7658 20.4313 35.0042C21.9867 35.2306 23.5733 34.94 24.9474 34.177C26.2358 33.4617 27.2372 32.3228 27.7818 30.9534C27.8291 30.8327 27.8366 30.7 27.8033 30.5747C27.7699 30.4495 27.6974 30.3381 27.5962 30.257Z" fill="white"/>
<path d="M27.1005 30.0928C27.0573 30.2058 27.0477 30.3289 27.073 30.4472C27.0982 30.5655 27.1571 30.674 27.2427 30.7595C27.3282 30.8451 27.4367 30.904 27.5551 30.9293C27.6734 30.9545 27.7965 30.9449 27.9095 30.9017L29.2567 30.2752L27.7361 28.7395L27.1005 30.0928Z" fill="#1E2021"/>
<path d="M29.8102 23.5756L27.5871 28.116C27.5357 28.2175 27.5213 28.3337 27.5462 28.4447C27.5712 28.5557 27.6341 28.6546 27.724 28.7242L29.2445 30.26C29.3161 30.3521 29.4176 30.4162 29.5315 30.4412C29.6454 30.4662 29.7644 30.4505 29.868 30.3969L34.4084 28.1708C34.4991 28.1264 34.5823 28.0679 34.6547 27.9974L29.9744 23.3171C29.9074 23.3949 29.8521 23.4819 29.8102 23.5756Z" fill="#CCCCCC"/>
<path d="M57.8829 4.14278C56.7881 2.57312 55.4239 1.20989 53.8534 0.116323C53.7628 0.0411462 53.6488 0 53.531 0C53.4133 0 53.2993 0.0411462 53.2087 0.116323L29.9835 23.3414L34.6669 28.0065L57.889 4.78446C57.962 4.69314 58.0012 4.57944 58.0001 4.46254C57.999 4.34564 57.9576 4.2327 57.8829 4.14278Z" fill="#333333"/>
<defs>
<linearGradient id="paint0_linear_38_384" x1="55.4699" y1="46.7078" x2="3.06528" y2="10.1869" gradientUnits="userSpaceOnUse">
<stop stop-color="#2CD2D5"/>
<stop offset="1" stop-color="#0C34FB"/>
</linearGradient>
</defs>
</svg>
